<?xml version="1.0" encoding="utf-8"?>
<!-- Generator: Adobe Illustrator 27.6.1, SVG Export Plug-In . SVG Version: 6.00 Build 0)  -->
<svg version="1.1" xmlns="http://www.w3.org/2000/svg" xmlns:xlink="http://www.w3.org/1999/xlink" x="0px" y="0px"
	 viewBox="0 0 512 512" style="enable-background:new 0 0 512 512;" xml:space="preserve">
<g id="Layer_1">
	<g>
		<g>
			<path style="fill:#FFFFFF;" d="M0,259.8c0-22.3,15.7-37.6,38.1-37.6c10.6,0,19.8,3.8,27.1,11.2l-9.2,8.7
				c-4.7-4.7-10.5-7.1-17.5-7.1c-14.3,0-24.1,10-24.1,24.7c0,14.7,9.8,24.7,24.1,24.7c7.1,0,13.8-2.7,18.7-7.5l8.6,9.5
				c-7.4,7.3-16.7,10.9-27.6,10.9C15.4,297.4,0,281.9,0,259.8z"/>
			<path style="fill:#FFFFFF;" d="M68.7,270.4c0-15.2,10.5-25.9,26.9-25.9s26.9,10.8,26.9,25.9c0,15.2-10.5,25.9-26.9,25.9
				S68.7,285.6,68.7,270.4z M95.5,284.7c8.2,0,13.6-6.3,13.6-14.3c0-7.9-5.3-14.3-13.6-14.3S82,262.5,82,270.4
				C82,278.4,87.3,284.7,95.5,284.7z"/>
			<path style="fill:#FFFFFF;" d="M130,245.6h11.6l0.9,5.7c3.9-4.3,9.8-6.7,16.3-6.7c12.7,0,20.8,8.9,20.8,22.9v27.8h-13.4v-27
				c0-7.6-4.1-12.1-10.8-12.1c-7.2,0-12.1,5.3-12.1,13v26H130V245.6z"/>
			<path style="fill:#FFFFFF;" d="M187.6,270.4c0-15.5,10.8-25.9,26.8-25.9c7.3,0,13.8,2.6,19.1,7.7l-7.7,8.3
				c-2.8-2.8-6.7-4.4-10.9-4.4c-8.2,0-14,5.8-14,14.3c0,8.4,5.6,14.3,14,14.3c4.4,0,8.4-1.7,11.5-4.8l7.8,8.4c-5.6,5.4-12,8-19.6,8
				C198.2,296.4,187.6,286.2,187.6,270.4z"/>
			<path style="fill:#FFFFFF;" d="M239.3,270.5c0-15.5,10.6-25.9,26.1-25.9c18,0,28,11.9,25.7,30.3h-38.3
				c0.9,6.2,6.3,10.4,14.4,10.4c5.3,0,10.7-1.8,13.9-4.7l7.4,7.6c-5.2,5.3-13.2,8.4-21.8,8.4C249.9,296.6,239.3,286.4,239.3,270.5z
				 M278.6,266c-0.5-6.4-5.3-10.5-12.8-10.5c-7,0-11.8,3.8-12.8,10.5H278.6z"/>
			<path style="fill:#FFFFFF;" d="M302,245.6h11.6l0.9,5.9c4-4.5,10.2-7,17.2-7c14.3,0,24.1,10.7,24.1,25.9
				c0,15.3-9.9,25.9-24.1,25.9c-6.5,0-12.3-2.2-16.3-6.2v27.4H302V245.6z M329,284.7c7.9,0,13.6-5.9,13.6-14.3
				c0-8.3-5.6-14.3-13.6-14.3c-8,0-13.7,5.9-13.7,14.3C315.3,278.8,320.9,284.7,329,284.7z"/>
			<path style="fill:#FFFFFF;" d="M370.3,277.6v-21.1h-9v-11h9v-12.7l13.3-1.4v14.1H397v11h-13.4v21.1c0,4.5,2.3,6.8,6.3,6.8
				c1.9,0,4.2-0.6,5.9-1.4l3.5,10.4c-4.1,1.9-7.7,2.6-12.2,2.6C377,296.1,370.3,290.6,370.3,277.6z"/>
		</g>
		<g>
			<g>
				<path style="fill:#E4C713;" d="M471.4,247c8.7-5.3,18.7-13.4,30.5-25l10.1-27.5h-23.2L471.4,247z"/>
				<path style="fill:#E4C713;" d="M457.9,289.8h-0.4c-2-9.2-4.7-17-7.3-23.9c-0.6,0-1.2,0-1.8,0c-7.6,0-14.8-2.1-22.2-5.7
					l22.4,57.2h18.3l26.6-72.6c-10.3,8.6-19.3,14.2-27.5,17.5C462.7,270.9,460.3,279.3,457.9,289.8z"/>
				<path style="fill:#E4C713;" d="M420.6,244.2c9.4,6,17.4,9.8,25.5,10.4c-0.4-1.4-0.9-2.8-1.4-4.3l-18.1-55.8h-23.2L420.6,244.2z"
					/>
			</g>
		</g>
	</g>
</g>
<g id="Layer_2">
</g>
</svg>
