<?xml version="1.0" encoding="UTF-8"?>
<svg id="Layer_1" xmlns="http://www.w3.org/2000/svg" xmlns:xlink="http://www.w3.org/1999/xlink" version="1.1" viewBox="0 0 512 512">
  <!-- Generator: Adobe Illustrator 29.2.0, SVG Export Plug-In . SVG Version: 2.1.0 Build 108)  -->
  <defs>
    <linearGradient id="linear-gradient" x1="-6105.9" y1="1126.3" x2="-5760.1" y2="1126.3" gradientTransform="translate(6189 -870.3)" gradientUnits="userSpaceOnUse">
      <stop offset="0" stop-color="#f3f3f3"/>
      <stop offset=".4" stop-color="#f6f6f6"/>
      <stop offset=".7" stop-color="#fff"/>
    </linearGradient>
  </defs>
  <rect x="70.5" y="70.5" width="371" height="371" rx="24.8" ry="24.8" transform="translate(-106 256) rotate(-45)" style="fill: #e2c521;"/>
  <g>
    <rect x="83.1" y="83.1" width="345.8" height="345.8" rx="16.1" ry="16.1" transform="translate(-106 256) rotate(-45)" style="fill: url(#linear-gradient);"/>
    <path d="M486,270.6l3.2-3.2c6.3-6.3,6.3-16.5,0-22.8L267.4,22.9c-6.3-6.3-16.5-6.3-22.8,0L22.9,244.6c-6.3,6.3-6.3,16.5,0,22.8l3.1,3.1.4.4c-4.4-4.4-4.3-11.4,0-15.8L248.1,31.4c4.4-4.4,11.4-4.4,15.8,0l222.7,222.7c4.4,4.4,4.4,11.4,0,15.8l-.6.7Z" style="fill: #fff;"/>
    <path d="M486.6,242.1c4.4,4.4,4.4,11.4,0,15.8l-222.7,222.7c-4.4,4.4-11.4,4.4-15.8,0L26.4,256.9c-4.4-4.4-4.4-11.4,0-15.8l-.4.4-3.1,3.1c-6.3,6.3-6.3,16.5,0,22.8l221.7,221.7c6.3,6.3,16.5,6.3,22.8,0l221.7-221.7c6.3-6.3,6.3-16.5,0-22.8l-3.2-3.2.6.7Z" style="fill: #d7d8dc;"/>
  </g>
  <g>
    <path d="M310.5,235.8v-20.4h20.2v20.4h-20.2ZM310.5,335.7v-84.3h20.2v84.3h-20.2Z" style="fill: #e2c620;"/>
    <g>
      <path d="M250.9,245.3c11.1-6.7,23.9-17.2,39.1-32l13-35.3h-29.7l-22.3,67.3Z" style="fill: #e2c620;"/>
      <path d="M233.7,300.1h-.5c-2.5-11.8-6.1-21.7-9.4-30.6-.8,0-1.6,0-2.3,0-9.7,0-18.9-2.7-28.4-7.3l28.7,73.2h23.4l34.1-93c-13.2,11-24.7,18.2-35.2,22.4-4.2,10.9-7.3,21.7-10.3,35.2Z" style="fill: #e2c620;"/>
      <path d="M185.9,241.6c12,7.7,22.3,12.5,32.7,13.3-.6-1.7-1.1-3.5-1.7-5.5l-23.2-71.4h-29.8l22,63.6Z" style="fill: #e2c620;"/>
    </g>
  </g>
</svg>